<?xml version="1.0" standalone="no"?>
<!DOCTYPE svg PUBLIC "-//W3C//DTD SVG 20010904//EN"
 "http://www.w3.org/TR/2001/REC-SVG-20010904/DTD/svg10.dtd">
<svg version="1.0" xmlns="http://www.w3.org/2000/svg"
 width="700.000000pt" height="700.000000pt" viewBox="0 0 700.000000 700.000000"
 preserveAspectRatio="xMidYMid meet">
<metadata>
Created by potrace 1.11, written by Peter Selinger 2001-2013
</metadata>
<g transform="translate(0.000000,700.000000) scale(0.100000,-0.100000)"
fill="#000000" stroke="none">
<path d="M0 3500 l0 -3500 3500 0 3500 0 0 3500 0 3500 -3500 0 -3500 0 0
-3500z m5240 1867 l0 -492 -1168 0 c-1112 0 -1170 -1 -1222 -19 -162 -55 -270
-159 -319 -310 -62 -187 -2 -417 138 -531 41 -33 131 -85 147 -85 8 0 24 -5
35 -10 36 -20 90 -22 679 -24 630 -4 668 -6 851 -60 240 -70 447 -193 624
-371 103 -103 106 -107 166 -190 114 -159 212 -390 244 -575 4 -19 9 -48 12
-65 3 -16 6 -102 8 -190 3 -186 -16 -322 -66 -469 -194 -570 -666 -948 -1264
-1012 -60 -7 -2266 -12 -2295 -6 -14 3 -16 59 -15 490 l0 487 1025 2 c564 1
1072 3 1130 4 169 4 265 42 365 143 93 93 133 184 140 316 10 185 -84 360
-245 452 -105 61 -110 61 -750 63 -322 1 -605 5 -630 9 -25 4 -56 9 -70 11
-14 3 -39 7 -56 10 -17 2 -71 16 -119 30 -409 119 -746 409 -929 800 -163 348
-176 791 -32 1146 205 511 681 877 1201 925 39 3 72 8 74 10 2 2 529 3 1172 3
l1169 1 0 -493z"/>
</g>
</svg>
