<svg width="512" height="512" viewBox="0 0 512 512" version="1.1" xmlns="http://www.w3.org/2000/svg" xmlns:xlink="http://www.w3.org/1999/xlink" xmlns:figma="http://www.figma.com/figma/ns">
<title>Sirnarasa</title>
<desc>Pasantren Sirnarasa - Kajembaran Rohmaniyyah</desc>
<g id="Canvas" transform="translate(-46 421)" figma:type="canvas">
<g id="Sirnarasa" figma:type="vector-operation">
<use xlink:href="#path0_fill" transform="translate(46 -421)" fill="#F2C94C"/>
</g>
</g>
<defs>
<path id="path0_fill" fill-rule="evenodd" d="M 512 0L 0 0L 0 512L 512 512L 512 0ZM 119.75 149.25C 114.083 162.25 111.25 176.167 111.25 191C 111.25 205.833 114.083 219.833 119.75 233C 125.417 246 133.083 257.417 142.75 267.25C 152.583 276.917 164 284.583 177 290.25C 190 295.917 203.917 298.75 218.75 298.75L 290.5 298.75C 295.5 298.75 300.167 299.667 304.5 301.5C 308.833 303.333 312.583 305.917 315.75 309.25C 319.083 312.417 321.667 316.167 323.5 320.5C 325.333 324.833 326.25 329.5 326.25 334.5C 326.25 339.5 325.333 344.167 323.5 348.5C 321.667 352.833 319.083 356.667 315.75 360C 312.583 363.167 308.833 365.667 304.5 367.5C 300.167 369.333 295.5 370.25 290.5 370.25L 131.25 370.25L 131.25 442L 290.5 442C 305.333 442 319.25 439.167 332.25 433.5C 345.417 427.833 356.833 420.167 366.5 410.5C 376.333 400.667 384 389.25 389.5 376.25C 395.167 363.25 398 349.333 398 334.5C 398 319.667 395.167 305.75 389.5 292.75C 384 279.583 376.333 268.167 366.5 258.5C 356.833 248.667 345.417 241 332.25 235.5C 319.25 229.833 305.333 227 290.5 227L 218.75 227C 213.75 227 209.083 226.083 204.75 224.25C 200.417 222.417 196.583 219.917 193.25 216.75C 190.083 213.417 187.583 209.583 185.75 205.25C 183.917 200.75 183 196 183 191C 183 186 183.917 181.333 185.75 177C 187.583 172.667 190.083 168.917 193.25 165.75C 196.583 162.417 200.417 159.833 204.75 158C 209.083 156.167 213.75 155.25 218.75 155.25L 383.25 155.25L 383.25 83.5L 218.75 83.5C 203.917 83.5 190 86.3333 177 92C 164 97.6667 152.583 105.417 142.75 115.25C 133.083 124.917 125.417 136.25 119.75 149.25Z"/>
</defs>
</svg>
